# Blender v2.93.4 OBJ File: ''
# www.blender.org
mtllib untitled.mtl
o entity0_brush5
v -8.442059 2.811136 -13.035521
v -8.442059 2.811132 11.413902
v -8.442059 3.599823 11.413902
v -8.442059 3.599827 -13.035521
v 12.063909 3.599823 11.413902
v 12.063909 2.811132 11.413902
v 12.063909 2.811136 -13.035521
v 12.063909 3.599827 -13.035521
v 2.599615 3.599826 -7.514683
v 2.599615 3.599824 6.681756
v 2.599615 6.754588 6.681756
v 2.599615 6.754590 -7.514683
v 10.486525 6.754588 6.681756
v 10.486525 3.599824 6.681756
v 10.486525 3.599826 -7.514683
v 10.486525 6.754590 -7.514683
v -6.864677 3.599826 -4.359919
v -6.864677 3.599824 3.526991
v -6.864677 4.388515 3.526992
v -6.864677 4.388516 -4.359919
v -4.498605 4.388515 3.526992
v -4.498605 3.599824 3.526991
v -4.498605 3.599826 -4.359919
v -4.498605 4.388516 -4.359919
v -2.921223 3.599826 -6.725991
v -2.921223 3.599825 -2.782537
v -2.921223 5.177207 -2.782537
v -2.921223 5.177208 -6.725991
v 2.599615 5.177207 -2.782537
v 2.599615 3.599825 -2.782537
v 2.599615 3.599826 -6.725991
v 2.599615 5.177208 -6.725991
v -2.921223 3.599824 2.738300
v -2.921223 3.599824 5.893064
v -2.921223 5.177206 5.893065
v -2.921223 5.177206 2.738301
v 2.599615 5.177206 5.893065
v 2.599615 3.599824 5.893064
v 2.599615 3.599824 2.738300
v 2.599615 5.177206 2.738301
v -4.498605 3.599825 -2.782537
v -4.498605 3.599824 2.738300
v -4.498605 5.965897 2.738301
v -4.498605 5.965898 -2.782537
v 2.599615 5.965897 2.738301
v 2.599615 3.599824 2.738300
v 2.599615 3.599825 -2.782537
v 2.599615 5.965898 -2.782537
v 9.697834 8.331971 -2.782537
v 7.331761 8.331972 -5.148610
v 7.331761 6.754590 -5.148610
v 9.697834 6.754589 -2.782537
v 9.697834 6.754590 -5.148610
v 9.697834 8.331972 -5.148610
v 9.697834 6.754589 1.949610
v 7.331761 6.754588 4.315683
v 7.331761 8.331970 4.315683
v 9.697834 8.331971 1.949610
v 9.697834 8.331970 4.315683
v 9.697834 6.754588 4.315683
v -4.498605 3.599824 2.738300
v -4.498605 3.599824 5.104373
v -4.498605 4.388515 5.104373
v -4.498605 4.388515 2.738301
v -2.921223 4.388515 5.104373
v -2.921223 3.599824 5.104373
v -2.921223 3.599824 2.738300
v -2.921223 4.388515 2.738301
v -4.498605 3.599826 -5.937301
v -4.498605 3.599825 -2.782537
v -4.498605 4.388516 -2.782537
v -4.498605 4.388517 -5.937301
v -2.921223 4.388516 -2.782537
v -2.921223 3.599825 -2.782537
v -2.921223 3.599826 -5.937301
v -2.921223 4.388517 -5.937301
v 9.697834 16.218882 -2.782535
v 7.331761 16.218882 -5.148608
v 7.331761 14.641500 -5.148609
v 9.697834 14.641500 -2.782536
v 9.697834 14.641500 -5.148609
v 9.697834 16.218882 -5.148608
v 9.697834 14.641500 1.949611
v 7.331761 14.641499 4.315684
v 7.331761 16.218880 4.315684
v 9.697834 16.218882 1.949611
v 9.697834 16.218880 4.315684
v 9.697834 14.641499 4.315684
v 7.331761 6.754588 4.315683
v 7.331761 6.754588 6.681756
v 7.331761 16.218880 6.681757
v 7.331761 16.218880 4.315684
v 10.486525 16.218880 6.681757
v 10.486525 6.754588 6.681756
v 10.486525 6.754588 4.315683
v 10.486525 16.218880 4.315684
v 7.331761 6.754590 -7.514683
v 7.331761 6.754590 -5.148610
v 7.331761 16.218882 -5.148608
v 7.331761 16.218882 -7.514681
v 10.486525 16.218882 -5.148608
v 10.486525 6.754590 -5.148610
v 10.486525 6.754590 -7.514683
v 10.486525 16.218882 -7.514681
v 9.697834 12.275428 -2.782536
v 7.331761 12.275428 -5.148609
v 7.331761 10.698045 -5.148609
v 9.697834 10.698045 -2.782536
v 9.697834 10.698045 -5.148609
v 9.697834 12.275428 -5.148609
v 9.697834 10.698044 1.949611
v 7.331761 10.698043 4.315683
v 7.331761 12.275426 4.315684
v 9.697834 12.275427 1.949611
v 9.697834 12.275426 4.315684
v 9.697834 10.698043 4.315683
v 9.697834 14.641500 -5.148609
v 9.697834 14.641499 4.315684
v 9.697834 16.218880 4.315684
v 9.697834 16.218882 -5.148608
v 10.486525 16.218880 4.315684
v 10.486525 14.641499 4.315684
v 10.486525 14.641500 -5.148609
v 10.486525 16.218882 -5.148608
v 9.697834 10.698045 -5.148609
v 9.697834 10.698043 4.315683
v 9.697834 12.275426 4.315684
v 9.697834 12.275428 -5.148609
v 10.486525 12.275426 4.315684
v 10.486525 10.698043 4.315683
v 10.486525 10.698045 -5.148609
v 10.486525 12.275428 -5.148609
v 9.697834 6.754590 -5.148610
v 9.697834 6.754588 4.315683
v 9.697834 8.331970 4.315683
v 9.697834 8.331972 -5.148610
v 10.486525 8.331970 4.315683
v 10.486525 6.754588 4.315683
v 10.486525 6.754590 -5.148610
v 10.486525 8.331972 -5.148610
v 10.486525 3.599826 -7.514683
v 10.486525 3.599824 6.681756
v 10.486525 14.641499 6.681757
v 10.486525 14.641500 -7.514682
v 12.063907 14.641499 6.681757
v 12.063907 3.599824 6.681756
v 12.063907 3.599826 -7.514683
v 12.063907 14.641500 -7.514682
vt 0.658602 0.372888
vt 0.658602 0.008065
vt 0.627112 0.008065
vt 0.627112 0.372888
vt 0.389017 0.468126
vt 0.753840 0.468126
vt 0.753840 0.436636
vt 0.389017 0.436636
vt 0.372888 0.008065
vt 0.008065 0.008065
vt 0.008065 0.372888
vt 0.372888 0.372888
vt 0.372888 0.389017
vt 0.008065 0.389017
vt 0.008065 0.753840
vt 0.372888 0.753840
vt 0.610983 0.372888
vt 0.610983 0.008065
vt 0.579493 0.008065
vt 0.579493 0.372888
vt 0.389017 0.420507
vt 0.753840 0.420507
vt 0.753840 0.389017
vt 0.389017 0.389017
vt 0.801459 0.182412
vt 0.801459 0.008065
vt 0.769969 0.008065
vt 0.769969 0.182412
vt 0.389017 0.896697
vt 0.468126 0.896697
vt 0.468126 0.865207
vt 0.389017 0.865207
vt 0.468126 0.484255
vt 0.389017 0.484255
vt 0.389017 0.658602
vt 0.468126 0.658602
vt 0.658602 0.563364
vt 0.658602 0.484255
vt 0.484255 0.484255
vt 0.484255 0.563364
vt 0.896697 0.849078
vt 0.896697 0.769969
vt 0.865207 0.769969
vt 0.865207 0.849078
vt 0.484255 0.658602
vt 0.658602 0.658602
vt 0.658602 0.627112
vt 0.484255 0.627112
vt 0.896697 0.753840
vt 0.896697 0.674731
vt 0.865207 0.674731
vt 0.865207 0.753840
vt 0.944316 0.912826
vt 0.912826 0.912826
vt 0.912826 0.944316
vt 0.944316 0.944316
vt 0.563364 0.896697
vt 0.563364 0.865207
vt 0.484255 0.865207
vt 0.484255 0.896697
vt 0.896697 0.579493
vt 0.865207 0.579493
vt 0.865207 0.658602
vt 0.896697 0.658602
vt 0.896697 0.912826
vt 0.865207 0.912826
vt 0.865207 0.944316
vt 0.896697 0.944316
vt 0.293779 0.896697
vt 0.372888 0.896697
vt 0.372888 0.865207
vt 0.293779 0.865207
vt 0.944316 0.865207
vt 0.912826 0.865207
vt 0.912826 0.896697
vt 0.944316 0.896697
vt 0.896697 0.563364
vt 0.896697 0.484255
vt 0.865207 0.484255
vt 0.865207 0.563364
vt 0.198541 0.896697
vt 0.277650 0.896697
vt 0.277650 0.865207
vt 0.198541 0.865207
vt 0.896697 0.468126
vt 0.896697 0.389017
vt 0.865207 0.389017
vt 0.865207 0.468126
vt 0.103303 0.896697
vt 0.182412 0.896697
vt 0.182412 0.865207
vt 0.103303 0.865207
vt 0.944316 0.817588
vt 0.912826 0.817588
vt 0.912826 0.849078
vt 0.944316 0.849078
vt 0.849078 0.912826
vt 0.817588 0.912826
vt 0.817588 0.944316
vt 0.849078 0.944316
vt 0.896697 0.372888
vt 0.896697 0.293779
vt 0.865207 0.293779
vt 0.865207 0.372888
vt 0.008065 0.896697
vt 0.087174 0.896697
vt 0.087174 0.865207
vt 0.008065 0.865207
vt 0.896697 0.182412
vt 0.896697 0.103303
vt 0.865207 0.103303
vt 0.865207 0.182412
vt 0.674731 0.849078
vt 0.753840 0.849078
vt 0.753840 0.817588
vt 0.674731 0.817588
vt 0.801459 0.912826
vt 0.769969 0.912826
vt 0.769969 0.944316
vt 0.801459 0.944316
vt 0.896697 0.087174
vt 0.896697 0.008065
vt 0.865207 0.008065
vt 0.865207 0.087174
vt 0.579493 0.849078
vt 0.658602 0.849078
vt 0.658602 0.817588
vt 0.579493 0.817588
vt 0.849078 0.769969
vt 0.769969 0.769969
vt 0.769969 0.849078
vt 0.849078 0.849078
vt 0.896697 0.198541
vt 0.817588 0.198541
vt 0.817588 0.277650
vt 0.896697 0.277650
vt 0.849078 0.753840
vt 0.849078 0.674731
vt 0.817588 0.674731
vt 0.817588 0.753840
vt 0.579493 0.896697
vt 0.658602 0.896697
vt 0.658602 0.865207
vt 0.579493 0.865207
vt 0.944316 0.722350
vt 0.912826 0.722350
vt 0.912826 0.753840
vt 0.944316 0.753840
vt 0.087174 0.968510
vt 0.063748 0.991935
vt 0.087174 0.991935
vt 0.991935 0.087174
vt 0.968510 0.087174
vt 0.991935 0.063748
vt 0.706221 0.912826
vt 0.674731 0.912826
vt 0.674731 0.944316
vt 0.706221 0.944316
vt 0.944316 0.674731
vt 0.912826 0.674731
vt 0.912826 0.706221
vt 0.944316 0.706221
vt 0.658602 0.912826
vt 0.627112 0.912826
vt 0.627112 0.944316
vt 0.658602 0.944316
vt 0.944316 0.579493
vt 0.912826 0.579493
vt 0.912826 0.610983
vt 0.944316 0.610983
vt 0.991935 0.134793
vt 0.968510 0.134793
vt 0.991935 0.111367
vt 0.134793 0.968510
vt 0.111367 0.991935
vt 0.134793 0.991935
vt 0.563364 0.912826
vt 0.531874 0.912826
vt 0.531874 0.944316
vt 0.563364 0.944316
vt 0.944316 0.531874
vt 0.912826 0.531874
vt 0.912826 0.563364
vt 0.944316 0.563364
vt 0.515745 0.912826
vt 0.484255 0.912826
vt 0.484255 0.944316
vt 0.515745 0.944316
vt 0.468126 0.912826
vt 0.436636 0.912826
vt 0.436636 0.944316
vt 0.468126 0.944316
vt 0.420507 0.912826
vt 0.389017 0.912826
vt 0.389017 0.944316
vt 0.420507 0.944316
vt 0.277650 0.912826
vt 0.246160 0.912826
vt 0.246160 0.944316
vt 0.277650 0.944316
vt 0.944316 0.198541
vt 0.912826 0.198541
vt 0.912826 0.230031
vt 0.944316 0.230031
vt 0.944316 0.150922
vt 0.912826 0.150922
vt 0.912826 0.182412
vt 0.944316 0.182412
vt 0.134793 0.912826
vt 0.103303 0.912826
vt 0.103303 0.944316
vt 0.134793 0.944316
vt 0.944316 0.103303
vt 0.912826 0.103303
vt 0.912826 0.134793
vt 0.944316 0.134793
vt 0.991935 0.008065
vt 0.960445 0.008065
vt 0.960445 0.039555
vt 0.991935 0.039555
vt 0.087174 0.912826
vt 0.055684 0.912826
vt 0.055684 0.944316
vt 0.087174 0.944316
vt 0.039555 0.912826
vt 0.008065 0.912826
vt 0.008065 0.944316
vt 0.039555 0.944316
vt 0.896697 0.865207
vt 0.865207 0.865207
vt 0.865207 0.896697
vt 0.896697 0.896697
vt 0.182412 0.968510
vt 0.158986 0.991935
vt 0.182412 0.991935
vt 0.991935 0.182412
vt 0.968510 0.182412
vt 0.991935 0.158986
vt 0.039555 0.960445
vt 0.008065 0.960445
vt 0.008065 0.991935
vt 0.039555 0.991935
vt 0.706221 0.865207
vt 0.674731 0.865207
vt 0.674731 0.896697
vt 0.706221 0.896697
vt 0.753840 0.865207
vt 0.722350 0.865207
vt 0.722350 0.896697
vt 0.753840 0.896697
vt 0.801459 0.865207
vt 0.769969 0.865207
vt 0.769969 0.896697
vt 0.801459 0.896697
vt 0.960445 0.150922
vt 0.983871 0.150922
vt 0.960445 0.174347
vt 0.150922 0.983871
vt 0.174347 0.960445
vt 0.150922 0.960445
vt 0.849078 0.865207
vt 0.817588 0.865207
vt 0.817588 0.896697
vt 0.849078 0.896697
vt 0.849078 0.484255
vt 0.817588 0.484255
vt 0.817588 0.658602
vt 0.849078 0.658602
vt 0.563364 0.706221
vt 0.563364 0.674731
vt 0.389017 0.674731
vt 0.389017 0.706221
vt 0.944316 0.008065
vt 0.912826 0.008065
vt 0.912826 0.039555
vt 0.944316 0.039555
vt 0.944316 0.055684
vt 0.912826 0.055684
vt 0.912826 0.087174
vt 0.944316 0.087174
vt 0.706221 0.198541
vt 0.674731 0.198541
vt 0.674731 0.372888
vt 0.706221 0.372888
vt 0.563364 0.753840
vt 0.563364 0.722350
vt 0.389017 0.722350
vt 0.389017 0.753840
vt 0.706221 0.484255
vt 0.674731 0.484255
vt 0.674731 0.658602
vt 0.706221 0.658602
vt 0.753840 0.753840
vt 0.753840 0.722350
vt 0.579493 0.722350
vt 0.579493 0.753840
vt 0.182412 0.912826
vt 0.150922 0.912826
vt 0.150922 0.944316
vt 0.182412 0.944316
vt 0.230031 0.912826
vt 0.198541 0.912826
vt 0.198541 0.944316
vt 0.230031 0.944316
vt 0.753840 0.198541
vt 0.722350 0.198541
vt 0.722350 0.372888
vt 0.753840 0.372888
vt 0.182412 0.801459
vt 0.182412 0.769969
vt 0.008065 0.769969
vt 0.008065 0.801459
vt 0.944316 0.246160
vt 0.912826 0.246160
vt 0.912826 0.277650
vt 0.944316 0.277650
vt 0.103303 0.983871
vt 0.126728 0.960445
vt 0.103303 0.960445
vt 0.960445 0.103303
vt 0.983871 0.103303
vt 0.960445 0.126728
vt 0.325269 0.912826
vt 0.293779 0.912826
vt 0.293779 0.944316
vt 0.325269 0.944316
vt 0.944316 0.293779
vt 0.912826 0.293779
vt 0.912826 0.325269
vt 0.944316 0.325269
vt 0.372888 0.912826
vt 0.341398 0.912826
vt 0.341398 0.944316
vt 0.372888 0.944316
vt 0.944316 0.341398
vt 0.912826 0.341398
vt 0.912826 0.372888
vt 0.944316 0.372888
vt 0.960445 0.055684
vt 0.983871 0.055684
vt 0.960445 0.079109
vt 0.055684 0.983871
vt 0.079109 0.960445
vt 0.055684 0.960445
vt 0.944316 0.389017
vt 0.912826 0.389017
vt 0.912826 0.420507
vt 0.944316 0.420507
vt 0.753840 0.658602
vt 0.753840 0.484255
vt 0.722350 0.484255
vt 0.722350 0.658602
vt 0.944316 0.436636
vt 0.912826 0.436636
vt 0.912826 0.468126
vt 0.944316 0.468126
vt 0.563364 0.801459
vt 0.563364 0.769969
vt 0.389017 0.769969
vt 0.389017 0.801459
vt 0.801459 0.198541
vt 0.769969 0.198541
vt 0.769969 0.372888
vt 0.801459 0.372888
vt 0.944316 0.484255
vt 0.912826 0.484255
vt 0.912826 0.515745
vt 0.944316 0.515745
vt 0.579493 0.801459
vt 0.753840 0.801459
vt 0.753840 0.769969
vt 0.579493 0.769969
vt 0.801459 0.563364
vt 0.801459 0.389017
vt 0.769969 0.389017
vt 0.769969 0.563364
vt 0.610983 0.912826
vt 0.579493 0.912826
vt 0.579493 0.944316
vt 0.610983 0.944316
vt 0.182412 0.849078
vt 0.182412 0.817588
vt 0.008065 0.817588
vt 0.008065 0.849078
vt 0.849078 0.008065
vt 0.817588 0.008065
vt 0.817588 0.182412
vt 0.849078 0.182412
vt 0.944316 0.627112
vt 0.912826 0.627112
vt 0.912826 0.658602
vt 0.944316 0.658602
vt 0.198541 0.849078
vt 0.372888 0.849078
vt 0.372888 0.817588
vt 0.198541 0.817588
vt 0.849078 0.468126
vt 0.849078 0.293779
vt 0.817588 0.293779
vt 0.817588 0.468126
vt 0.753840 0.912826
vt 0.722350 0.912826
vt 0.722350 0.944316
vt 0.753840 0.944316
vt 0.563364 0.849078
vt 0.563364 0.817588
vt 0.389017 0.817588
vt 0.389017 0.849078
vt 0.801459 0.579493
vt 0.769969 0.579493
vt 0.769969 0.753840
vt 0.801459 0.753840
vt 0.944316 0.769969
vt 0.912826 0.769969
vt 0.912826 0.801459
vt 0.944316 0.801459
vt 0.198541 0.801459
vt 0.372888 0.801459
vt 0.372888 0.769969
vt 0.198541 0.769969
vt 0.563364 0.008065
vt 0.389017 0.008065
vt 0.389017 0.182412
vt 0.563364 0.182412
vt 0.753840 0.008065
vt 0.722350 0.008065
vt 0.722350 0.182412
vt 0.753840 0.182412
vt 0.753840 0.706221
vt 0.753840 0.674731
vt 0.579493 0.674731
vt 0.579493 0.706221
vt 0.706221 0.008065
vt 0.674731 0.008065
vt 0.674731 0.182412
vt 0.706221 0.182412
vt 0.658602 0.610983
vt 0.658602 0.579493
vt 0.484255 0.579493
vt 0.484255 0.610983
vt 0.563364 0.198541
vt 0.389017 0.198541
vt 0.389017 0.372888
vt 0.563364 0.372888
vn -1.0000 0.0000 0.0000
vn 0.0000 0.0000 1.0000
vn 0.0000 -1.0000 -0.0000
vn 0.0000 1.0000 0.0000
vn 0.0000 0.0000 -1.0000
vn 1.0000 0.0000 0.0000
vn -0.7071 0.0000 0.7071
vn -0.7071 0.0000 -0.7071
usemtl __TB_empty
s 1
f 1/1/1 2/2/1 3/3/1 4/4/1
f 5/5/2 3/6/2 2/7/2 6/8/2
f 6/9/3 2/10/3 1/11/3 7/12/3
f 8/13/4 4/14/4 3/15/4 5/16/4
f 7/17/5 1/18/5 4/19/5 8/20/5
f 8/21/6 5/22/6 6/23/6 7/24/6
f 9/25/1 10/26/1 11/27/1 12/28/1
f 13/29/2 11/30/2 10/31/2 14/32/2
f 14/33/3 10/34/3 9/35/3 15/36/3
f 16/37/4 12/38/4 11/39/4 13/40/4
f 15/41/5 9/42/5 12/43/5 16/44/5
f 16/45/6 13/46/6 14/47/6 15/48/6
f 17/49/1 18/50/1 19/51/1 20/52/1
f 21/53/2 19/54/2 18/55/2 22/56/2
f 22/57/3 18/58/3 17/59/3 23/60/3
f 24/61/4 20/62/4 19/63/4 21/64/4
f 23/65/5 17/66/5 20/67/5 24/68/5
f 24/69/6 21/70/6 22/71/6 23/72/6
f 25/73/1 26/74/1 27/75/1 28/76/1
f 29/77/2 27/78/2 26/79/2 30/80/2
f 30/81/3 26/82/3 25/83/3 31/84/3
f 32/85/4 28/86/4 27/87/4 29/88/4
f 31/89/5 25/90/5 28/91/5 32/92/5
f 32/93/6 29/94/6 30/95/6 31/96/6
f 33/97/1 34/98/1 35/99/1 36/100/1
f 37/101/2 35/102/2 34/103/2 38/104/2
f 38/105/3 34/106/3 33/107/3 39/108/3
f 40/109/4 36/110/4 35/111/4 37/112/4
f 39/113/5 33/114/5 36/115/5 40/116/5
f 40/117/6 37/118/6 38/119/6 39/120/6
f 41/121/1 42/122/1 43/123/1 44/124/1
f 45/125/2 43/126/2 42/127/2 46/128/2
f 46/129/3 42/130/3 41/131/3 47/132/3
f 48/133/4 44/134/4 43/135/4 45/136/4
f 47/137/5 41/138/5 44/139/5 48/140/5
f 48/141/6 45/142/6 46/143/6 47/144/6
f 49/145/7 50/146/7 51/147/7 52/148/7
f 52/149/3 51/150/3 53/151/3
f 54/152/4 50/153/4 49/154/4
f 53/155/5 51/156/5 50/157/5 54/158/5
f 49/159/6 52/160/6 53/161/6 54/162/6
f 55/163/8 56/164/8 57/165/8 58/166/8
f 59/167/2 57/168/2 56/169/2 60/170/2
f 60/171/3 56/172/3 55/173/3
f 58/174/4 57/175/4 59/176/4
f 60/177/6 55/178/6 58/179/6 59/180/6
f 61/181/1 62/182/1 63/183/1 64/184/1
f 65/185/2 63/186/2 62/187/2 66/188/2
f 66/189/3 62/190/3 61/191/3 67/192/3
f 68/193/4 64/194/4 63/195/4 65/196/4
f 67/197/5 61/198/5 64/199/5 68/200/5
f 68/201/6 65/202/6 66/203/6 67/204/6
f 69/205/1 70/206/1 71/207/1 72/208/1
f 73/209/2 71/210/2 70/211/2 74/212/2
f 74/213/3 70/214/3 69/215/3 75/216/3
f 76/217/4 72/218/4 71/219/4 73/220/4
f 75/221/5 69/222/5 72/223/5 76/224/5
f 76/225/6 73/226/6 74/227/6 75/228/6
f 77/229/7 78/230/7 79/231/7 80/232/7
f 80/233/3 79/234/3 81/235/3
f 82/236/4 78/237/4 77/238/4
f 81/239/5 79/240/5 78/241/5 82/242/5
f 77/243/6 80/244/6 81/245/6 82/246/6
f 83/247/8 84/248/8 85/249/8 86/250/8
f 87/251/2 85/252/2 84/253/2 88/254/2
f 88/255/3 84/256/3 83/257/3
f 86/258/4 85/259/4 87/260/4
f 88/261/6 83/262/6 86/263/6 87/264/6
f 89/265/1 90/266/1 91/267/1 92/268/1
f 93/269/2 91/270/2 90/271/2 94/272/2
f 94/273/3 90/274/3 89/275/3 95/276/3
f 96/277/4 92/278/4 91/279/4 93/280/4
f 95/281/5 89/282/5 92/283/5 96/284/5
f 96/285/6 93/286/6 94/287/6 95/288/6
f 97/289/1 98/290/1 99/291/1 100/292/1
f 101/293/2 99/294/2 98/295/2 102/296/2
f 102/297/3 98/298/3 97/299/3 103/300/3
f 104/301/4 100/302/4 99/303/4 101/304/4
f 103/305/5 97/306/5 100/307/5 104/308/5
f 104/309/6 101/310/6 102/311/6 103/312/6
f 105/313/7 106/314/7 107/315/7 108/316/7
f 108/317/3 107/318/3 109/319/3
f 110/320/4 106/321/4 105/322/4
f 109/323/5 107/324/5 106/325/5 110/326/5
f 105/327/6 108/328/6 109/329/6 110/330/6
f 111/331/8 112/332/8 113/333/8 114/334/8
f 115/335/2 113/336/2 112/337/2 116/338/2
f 116/339/3 112/340/3 111/341/3
f 114/342/4 113/343/4 115/344/4
f 116/345/6 111/346/6 114/347/6 115/348/6
f 117/349/1 118/350/1 119/351/1 120/352/1
f 121/353/2 119/354/2 118/355/2 122/356/2
f 122/357/3 118/358/3 117/359/3 123/360/3
f 124/361/4 120/362/4 119/363/4 121/364/4
f 123/365/5 117/366/5 120/367/5 124/368/5
f 124/369/6 121/370/6 122/371/6 123/372/6
f 125/373/1 126/374/1 127/375/1 128/376/1
f 129/377/2 127/378/2 126/379/2 130/380/2
f 130/381/3 126/382/3 125/383/3 131/384/3
f 132/385/4 128/386/4 127/387/4 129/388/4
f 131/389/5 125/390/5 128/391/5 132/392/5
f 132/393/6 129/394/6 130/395/6 131/396/6
f 133/397/1 134/398/1 135/399/1 136/400/1
f 137/401/2 135/402/2 134/403/2 138/404/2
f 138/405/3 134/406/3 133/407/3 139/408/3
f 140/409/4 136/410/4 135/411/4 137/412/4
f 139/413/5 133/414/5 136/415/5 140/416/5
f 140/417/6 137/418/6 138/419/6 139/420/6
f 141/421/1 142/422/1 143/423/1 144/424/1
f 145/425/2 143/426/2 142/427/2 146/428/2
f 146/429/3 142/430/3 141/431/3 147/432/3
f 148/433/4 144/434/4 143/435/4 145/436/4
f 147/437/5 141/438/5 144/439/5 148/440/5
f 148/441/6 145/442/6 146/443/6 147/444/6
